<?xml version="1.0" encoding="UTF-8" standalone="no"?>
<svg
   xmlns:dc="http://purl.org/dc/elements/1.1/"
   xmlns:cc="http://creativecommons.org/ns#"
   xmlns:rdf="http://www.w3.org/1999/02/22-rdf-syntax-ns#"
   xmlns:svg="http://www.w3.org/2000/svg"
   xmlns="http://www.w3.org/2000/svg"
   viewBox="0 0 1122.52 793.70135"
   height="793.70135"
   width="1122.52"
   xml:space="preserve"
   id="svg2"
   version="1.1"><metadata
     id="metadata8"><rdf:RDF><cc:Work
         rdf:about=""><dc:format>image/svg+xml</dc:format><dc:type
           rdf:resource="http://purl.org/dc/dcmitype/StillImage" /></cc:Work></rdf:RDF></metadata><defs
     id="defs6" /><g
     transform="matrix(1.3333333,0,0,-1.3333333,0,793.70133)"
     id="g10"><g
       transform="translate(118.8564,316.5168)"
       id="g12"><path
         id="path14"
         style="fill:#010101;fill-opacity:1;fill-rule:nonzero;stroke:none"
         d="m 0,0 v 14.313 l -3.368,3.509 h -17.821 v -21.19 h 17.821 z m 0,39.854 v 13.752 l -3.368,3.508 H -21.189 V 36.346 h 17.821 z m 18.665,26.663 v -29.75 l -9.122,-9.122 9.122,-9.122 v -31.434 l -9.122,-9.121 h -53.186 l 3.93,8.56 v 80.41 l -3.93,8.7 H 9.543 Z" /></g><g
       transform="translate(200.813,345.2849)"
       id="g16"><path
         id="path18"
         style="fill:#010101;fill-opacity:1;fill-rule:nonzero;stroke:none"
         d="m 0,0 v 24.838 l -3.368,3.368 h -16.98 V -3.368 h 16.98 z M 20.628,-50.8 H -1.824 l 2.105,4.631 -9.543,24.137 h -7.577 l -3.509,-3.368 v -16.84 l 3.93,-8.56 h -26.383 l 3.929,8.56 v 80.41 l -3.929,8.7 H 9.402 l 9.121,-9.121 v -50.52 l -9.121,-9.261 z" /></g><g
       transform="translate(296.6611,392.155)"
       id="g20"><path
         id="path22"
         style="fill:#010101;fill-opacity:1;fill-rule:nonzero;stroke:none"
         d="m 0,0 v -22.453 l -8.561,3.929 h -19.926 l -3.509,-3.508 v -14.033 l 3.509,-3.508 h 12.91 l 8.56,3.929 v -26.382 l -8.56,3.929 h -12.91 l -3.509,-3.508 v -14.033 l 3.509,-3.508 H -8.561 L 0,-75.217 V -97.67 h -54.448 l 3.929,8.56 V -8.7 L -54.448,0 Z" /></g><g
       transform="translate(389.8423,299.9577)"
       id="g24"><path
         id="path26"
         style="fill:#010101;fill-opacity:1;fill-rule:nonzero;stroke:none"
         d="m 0,0 2.525,-5.473 h -30.171 l 2.527,5.613 -4.21,16.84 -4.21,-16.84 2.525,-5.613 h -30.03 l 2.386,5.613 -20.489,83.357 -3.929,8.7 h 24.699 l -2.386,-5.613 14.734,-59.921 7.157,29.048 -8.982,36.486 h 14.315 l 4.21,-11.367 4.35,11.367 h 14.173 l -8.981,-36.486 7.297,-29.048 14.735,59.921 -2.526,5.613 h 24.839 l -3.93,-8.7 z" /></g><g
       transform="translate(479.376,316.9377)"
       id="g28"><path
         id="path30"
         style="fill:#010101;fill-opacity:1;fill-rule:nonzero;stroke:none"
         d="m 0,0 v -22.453 h -48.414 l 3.93,8.56 v 80.41 l -3.93,8.7 h 26.382 l -3.929,-8.7 V -0.421 l 3.508,-3.508 h 13.752 z" /></g><g
       transform="translate(523.5811,303.0451)"
       id="g32"><path
         id="path34"
         style="fill:#010101;fill-opacity:1;fill-rule:nonzero;stroke:none"
         d="M 0,0 3.93,-8.561 H -22.453 L -18.523,0 v 80.41 l -3.93,8.7 H 3.93 L 0,80.41 Z" /></g><g
       transform="translate(574.1016,335.0403)"
       id="g36"><path
         id="path38"
         style="fill:#010101;fill-opacity:1;fill-rule:nonzero;stroke:none"
         d="M 0,0 13.191,-3.228 6.174,24.979 Z M 43.222,-40.556 H 18.383 l 2.526,5.614 -2.947,11.928 -22.313,5.613 -4.349,-17.541 2.525,-5.614 h -24.698 l 3.93,8.561 20.487,83.496 -2.525,5.614 h 30.17 l -2.526,-5.614 20.629,-83.496 z" /></g><g
       transform="translate(701.1016,303.0451)"
       id="g40"><path
         id="path42"
         style="fill:#010101;fill-opacity:1;fill-rule:nonzero;stroke:none"
         d="m 0,0 3.93,-8.561 h -22.453 l -25.68,56.694 V 0 l 3.929,-8.561 H -66.656 L -62.728,0 v 80.41 l -3.928,8.7 h 22.453 l 25.68,-56.694 V 80.41 l -3.93,8.7 H 3.93 L 0,80.41 Z" /></g><g
       transform="translate(786.4268,392.155)"
       id="g44"><path
         id="path46"
         style="fill:#010101;fill-opacity:1;fill-rule:nonzero;stroke:none"
         d="m 0,0 v -22.453 l -8.7,3.789 h -9.964 l -3.508,-3.368 V -89.11 l 3.929,-8.56 h -26.382 l 3.93,8.56 v 67.078 l -3.509,3.368 h -10.105 l -8.559,-3.789 V 0 Z" /></g><g
       transform="translate(250.2573,238.1779)"
       id="g48"><path
         id="path50"
         style="fill:#010101;fill-opacity:1;fill-rule:nonzero;stroke:none"
         d="M 0,0 V 2.11 L -1.199,3.261 H -4.507 L -5.706,2.11 V -0.767 L 6.33,-8.871 V -20.619 L 3.213,-23.736 H -8.919 l -3.117,3.117 v 3.549 l -1.342,2.972 h 7.672 v -2.11 l 1.199,-1.198 h 3.308 L 0,-16.208 v 4.124 l -12.036,8.105 v 10.5 l 3.117,3.118 H 3.213 L 6.33,6.521 V 2.926 L 7.672,0 Z" /></g><g
       transform="translate(277.1548,231.801)"
       id="g52"><path
         id="path54"
         style="fill:#010101;fill-opacity:1;fill-rule:nonzero;stroke:none"
         d="M 0,0 V 8.487 L -1.199,9.638 H -6.953 V -1.151 h 5.754 z M 3.213,16.016 6.33,12.898 V -4.364 L 3.213,-7.528 H -5.754 L -6.953,-8.68 v -5.754 l 1.343,-2.925 h -9.015 l 1.343,2.925 v 27.476 l -1.343,2.974 z" /></g><g
       transform="translate(309.4233,247.8166)"
       id="g56"><path
         id="path58"
         style="fill:#010101;fill-opacity:1;fill-rule:nonzero;stroke:none"
         d="m 0,0 v -7.673 l -2.925,1.343 h -6.809 l -1.199,-1.198 v -4.795 l 1.199,-1.199 h 4.411 l 2.926,1.342 v -9.014 l -2.926,1.341 h -4.411 l -1.199,-1.198 v -4.796 l 1.199,-1.198 h 6.809 L 0,-25.702 v -7.673 h -18.605 l 1.342,2.926 V -2.974 L -18.605,0 Z" /></g><g
       transform="translate(328.2646,241.4865)"
       id="g60"><path
         id="path62"
         style="fill:#010101;fill-opacity:1;fill-rule:nonzero;stroke:none"
         d="m 0,0 h -4.267 l -1.199,-1.198 v -18.319 l 1.199,-1.15 -0.049,-0.048 H 0.048 L 0,-20.667 l 1.199,1.15 v 2.159 h 3.405 l 2.925,1.342 v -7.912 L 4.412,-27.045 H -8.679 l -3.117,3.117 V 3.213 L -8.679,6.33 H 4.412 L 7.529,3.213 V -3.404 H 4.125 L 1.199,-4.699 v 3.501 z" /></g><g
       transform="translate(351.709,217.3674)"
       id="g64"><path
         id="path66"
         style="fill:#010101;fill-opacity:1;fill-rule:nonzero;stroke:none"
         d="M 0,0 1.343,-2.926 H -7.672 L -6.329,0 v 27.476 l -1.343,2.973 H 1.343 L 0,27.476 Z" /></g><g
       transform="translate(368.9712,228.3)"
       id="g68"><path
         id="path70"
         style="fill:#010101;fill-opacity:1;fill-rule:nonzero;stroke:none"
         d="M 0,0 4.507,-1.103 2.11,8.535 Z M 14.769,-13.858 H 6.282 l 0.863,1.919 -1.007,4.075 -7.624,1.918 -1.488,-5.993 0.864,-1.919 h -8.439 l 1.342,2.925 7.001,28.532 -0.863,1.918 h 10.31 l -0.864,-1.918 7.049,-28.532 z" /></g><g
       transform="translate(406.1289,222.1145)"
       id="g72"><path
         id="path74"
         style="fill:#010101;fill-opacity:1;fill-rule:nonzero;stroke:none"
         d="m 0,0 v -7.673 h -16.543 l 1.342,2.926 v 27.476 l -1.342,2.973 h 9.015 L -8.87,22.729 V -0.145 l 1.198,-1.198 h 4.699 z" /></g><g
       transform="translate(435.041,247.8166)"
       id="g76"><path
         id="path78"
         style="fill:#010101;fill-opacity:1;fill-rule:nonzero;stroke:none"
         d="m 0,0 v -7.673 l -2.973,1.295 h -3.404 l -1.199,-1.15 v -22.921 l 1.342,-2.926 h -9.015 l 1.343,2.926 v 22.921 l -1.199,1.15 h -3.453 l -2.924,-1.295 V 0 Z" /></g><g
       transform="translate(456.3281,217.3674)"
       id="g80"><path
         id="path82"
         style="fill:#010101;fill-opacity:1;fill-rule:nonzero;stroke:none"
         d="M 0,0 1.343,-2.926 H -7.673 L -6.329,0 V 9.494 L -15.2,30.449 h 8.487 L -7.433,28.818 -3.165,17.07 1.104,28.818 0.336,30.449 H 8.823 L 0,9.494 Z" /></g><g
       transform="translate(499.9102,241.4865)"
       id="g84"><path
         id="path86"
         style="fill:#010101;fill-opacity:1;fill-rule:nonzero;stroke:none"
         d="m 0,0 h -4.268 l -1.199,-1.198 v -18.319 l 1.199,-1.15 -0.047,-0.048 H 0.048 L 0,-20.667 l 1.199,1.15 v 2.159 h 3.405 l 2.925,1.342 v -7.912 L 4.411,-27.045 H -8.68 l -3.116,3.117 V 3.213 L -8.68,6.33 H 4.411 L 7.529,3.213 V -3.404 H 4.125 L 1.199,-4.699 v 3.501 z" /></g><g
       transform="translate(529.5889,221.9699)"
       id="g88"><path
         id="path90"
         style="fill:#010101;fill-opacity:1;fill-rule:nonzero;stroke:none"
         d="m 0,0 v 18.318 l -1.198,1.151 H -6.377 L -7.576,18.318 V 0 l 1.199,-1.198 h 5.179 z M 3.213,25.847 6.329,22.729 V -4.411 L 3.213,-7.528 h -14.002 l -3.117,3.117 v 27.14 l 3.117,3.118 z" /></g><g
       transform="translate(562.4805,240.1438)"
       id="g92"><path
         id="path94"
         style="fill:#010101;fill-opacity:1;fill-rule:nonzero;stroke:none"
         d="M 0,0 -2.973,1.343 H -9.158 L -10.357,0.145 V -4.65 l 1.199,-1.2 h 3.787 l 2.926,1.343 v -9.014 l -2.926,1.341 h -3.787 l -1.199,-1.198 v -9.398 l 1.342,-2.926 h -9.014 l 1.342,2.926 V 4.699 l -1.342,2.974 18.029,0 z" /></g><g
       transform="translate(587.6523,240.1438)"
       id="g96"><path
         id="path98"
         style="fill:#010101;fill-opacity:1;fill-rule:nonzero;stroke:none"
         d="M 0,0 -2.974,1.343 H -9.159 L -10.358,0.145 V -4.65 l 1.199,-1.2 h 3.788 l 2.925,1.343 v -9.014 l -2.925,1.341 h -3.788 l -1.199,-1.198 v -9.398 l 1.343,-2.926 h -9.015 l 1.343,2.926 V 4.699 L -18.03,7.673 H 0 Z" /></g><g
       transform="translate(613.3994,247.8166)"
       id="g100"><path
         id="path102"
         style="fill:#010101;fill-opacity:1;fill-rule:nonzero;stroke:none"
         d="m 0,0 v -7.673 l -2.925,1.343 h -6.809 l -1.199,-1.198 v -4.795 l 1.199,-1.199 h 4.411 l 2.926,1.342 v -9.014 l -2.926,1.341 h -4.411 l -1.199,-1.198 v -4.796 l 1.199,-1.198 h 6.809 L 0,-25.702 v -7.673 h -18.605 l 1.342,2.926 V -2.974 L -18.605,0 Z" /></g><g
       transform="translate(639.0498,247.8166)"
       id="g104"><path
         id="path106"
         style="fill:#010101;fill-opacity:1;fill-rule:nonzero;stroke:none"
         d="m 0,0 v -7.673 l -2.925,1.343 h -6.809 l -1.2,-1.198 v -4.795 l 1.2,-1.199 h 4.411 l 2.926,1.342 v -9.014 l -2.926,1.341 h -4.411 l -1.2,-1.198 v -4.796 l 1.2,-1.198 h 6.809 L 0,-25.702 v -7.673 h -18.605 l 1.342,2.926 V -2.974 L -18.605,0 Z" /></g></g></svg>